<mxfile host="app.diagrams.net" modified="2023-08-17T12:39:27.496Z" agent="Mozilla/5.0 (Windows NT 10.0; Win64; x64) AppleWebKit/537.36 (KHTML, like Gecko) Chrome/114.0.0.0 Safari/537.36 OPR/100.0.0.0" version="21.6.7" etag="IuGRyv07cTA5jRqtZwyf" type="github">
  <diagram name="PÃ¡gina-1" id="FM2MkiizyPchoGgsjXtd">
    <mxGraphModel>
      <root>
        <mxCell id="0" />
        <mxCell id="1" parent="0" />
      </root>
    </mxGraphModel>
  </diagram>
</mxfile>
